<?xml version="1.0" standalone="no"?>
<!DOCTYPE svg PUBLIC "-//W3C//DTD SVG 20010904//EN"
 "http://www.w3.org/TR/2001/REC-SVG-20010904/DTD/svg10.dtd">
<svg version="1.0" xmlns="http://www.w3.org/2000/svg"
 width="1080.000000pt" height="1080.000000pt" viewBox="0 0 1080.000000 1080.000000"
 preserveAspectRatio="xMidYMid meet">
<metadata>
Created by potrace 1.14, written by Peter Selinger 2001-2017
</metadata>
<g transform="translate(0.000000,1080.000000) scale(0.100000,-0.100000)"
fill="#000000" stroke="none">
<path d="M5480 9724 c0 -5 -53 -9 -118 -9 -64 0 -123 -3 -129 -8 -9 -6 -13 -5
-13 2 0 7 -5 9 -12 4 -7 -4 -42 -8 -78 -9 -36 -2 -65 -3 -65 -4 0 -1 -11 -3
-25 -4 -14 0 -29 -3 -35 -6 -5 -3 -29 -5 -52 -5 -24 0 -43 -3 -43 -6 0 -3 -10
-5 -22 -4 -13 1 -39 -2 -58 -6 -19 -4 -51 -10 -70 -13 -19 -3 -69 -12 -110
-21 -41 -9 -84 -18 -95 -21 -11 -2 -46 -11 -77 -19 -32 -8 -83 -22 -115 -29
-93 -24 -337 -109 -345 -120 -4 -6 -8 -8 -8 -4 0 7 -75 -23 -190 -74 -30 -14
-59 -26 -65 -27 -19 -6 -271 -139 -346 -184 -105 -62 -253 -160 -257 -169 -2
-5 -10 -8 -18 -8 -8 0 -14 -4 -14 -10 0 -5 -7 -10 -15 -10 -8 0 -15 -4 -15 -8
0 -5 -22 -23 -50 -41 -27 -18 -50 -37 -50 -42 0 -5 -5 -9 -10 -9 -6 0 -18 -6
-26 -12 -8 -7 -20 -18 -27 -23 -7 -6 -43 -37 -82 -69 -38 -32 -71 -63 -73 -67
-2 -5 -10 -9 -18 -9 -9 0 -12 -4 -9 -10 3 -5 2 -10 -3 -10 -12 0 -246 -232
-324 -322 l-58 -65 -102 -2 c-154 -3 -327 -13 -433 -26 -27 -4 -63 -8 -80 -10
-16 -1 -32 -4 -35 -5 -3 -1 -8 -2 -12 -1 -3 0 -41 -6 -84 -14 -42 -9 -89 -17
-103 -20 -36 -7 -101 -21 -111 -25 -3 -1 -9 -3 -15 -4 -19 -4 -70 -18 -85 -23
-8 -4 -17 -7 -20 -8 -23 -5 -121 -39 -145 -50 -16 -7 -41 -16 -55 -20 -14 -4
-34 -15 -44 -24 -11 -9 -16 -11 -13 -4 16 27 -228 -117 -333 -197 -50 -38
-178 -168 -197 -201 -10 -16 -21 -29 -25 -29 -4 0 -8 -7 -8 -15 0 -8 -4 -15
-8 -15 -5 0 -15 -12 -22 -27 -8 -16 -20 -35 -28 -45 -7 -9 -14 -23 -16 -31 -1
-8 -10 -26 -19 -40 -10 -15 -15 -27 -11 -27 3 0 -1 -11 -10 -25 -9 -14 -14
-25 -10 -25 4 0 1 -7 -6 -15 -7 -8 -10 -15 -7 -15 3 0 -3 -25 -13 -56 -11 -31
-17 -60 -15 -64 3 -5 1 -11 -5 -15 -6 -4 -8 -10 -5 -15 3 -5 1 -19 -5 -30 -8
-14 -8 -20 0 -20 6 0 8 -5 3 -12 -4 -7 -9 -24 -10 -38 -7 -55 -1 -325 7 -325
1 0 4 -12 6 -27 2 -16 6 -40 8 -55 2 -16 5 -28 6 -28 1 0 3 -11 5 -25 5 -30
10 -50 17 -70 3 -8 11 -35 18 -60 6 -25 25 -83 42 -130 29 -82 48 -127 105
-247 15 -32 26 -61 25 -65 -1 -5 2 -8 7 -8 5 0 16 -18 24 -39 9 -22 21 -42 27
-46 6 -3 8 -11 5 -16 -4 -5 -1 -9 4 -9 6 0 11 -7 11 -15 0 -7 7 -18 16 -23 9
-5 16 -12 16 -15 0 -19 12 -47 20 -47 5 0 7 -4 4 -9 -4 -5 -2 -11 2 -13 5 -1
30 -37 56 -78 27 -41 54 -78 60 -82 6 -4 7 -8 2 -8 -4 0 8 -20 28 -44 20 -24
36 -49 36 -55 0 -6 5 -11 10 -11 6 0 10 -5 10 -11 0 -7 11 -22 26 -35 14 -13
22 -24 19 -24 -3 0 6 -12 20 -27 14 -16 28 -36 31 -45 3 -10 10 -18 15 -18 6
0 7 -4 4 -10 -3 -5 1 -10 9 -10 9 0 16 -4 16 -8 0 -5 9 -19 19 -31 11 -12 34
-40 53 -63 18 -23 44 -53 58 -68 14 -15 45 -51 70 -80 25 -29 71 -79 103 -112
31 -33 57 -65 57 -71 0 -6 2 -8 5 -5 5 4 95 -79 95 -88 0 -1 14 -16 30 -32 17
-17 30 -40 30 -52 0 -12 4 -29 9 -38 5 -9 12 -30 15 -47 7 -41 42 -163 56
-200 6 -16 11 -30 10 -30 -3 0 8 -31 51 -150 24 -66 44 -122 45 -125 11 -51
229 -495 260 -531 8 -8 14 -19 14 -23 0 -4 13 -26 28 -49 15 -23 34 -54 41
-69 8 -16 18 -28 23 -28 4 0 8 -4 8 -9 0 -6 15 -31 33 -57 17 -25 37 -53 42
-63 6 -9 12 -18 15 -21 3 -3 25 -32 49 -65 25 -33 48 -61 53 -63 4 -2 8 -10 8
-17 0 -7 3 -15 8 -17 4 -1 27 -28 52 -58 50 -61 88 -105 138 -158 17 -19 32
-38 32 -42 0 -4 11 -13 25 -20 14 -7 23 -15 21 -17 -2 -2 37 -44 88 -93 93
-90 105 -101 190 -174 26 -22 58 -49 70 -60 11 -10 46 -37 76 -60 30 -22 62
-49 71 -58 9 -10 19 -18 23 -18 9 0 110 -73 114 -82 2 -5 10 -8 18 -8 8 0 14
-4 14 -10 0 -5 5 -10 10 -10 6 0 44 -23 85 -50 41 -28 75 -48 75 -45 0 3 10
-3 22 -14 11 -11 24 -18 28 -16 4 3 13 -2 20 -10 7 -8 18 -15 25 -15 8 0 15
-4 17 -8 4 -12 305 -161 311 -155 10 9 11 648 3 1005 l-3 136 33 -16 c19 -8
34 -20 34 -24 0 -5 5 -6 10 -3 6 3 10 1 10 -6 0 -7 3 -10 6 -6 3 3 27 -7 52
-22 42 -25 172 -92 307 -160 28 -13 53 -29 56 -34 3 -5 9 -8 13 -7 11 3 66
-22 66 -30 0 -5 -9 -29 -19 -53 -11 -25 -17 -48 -14 -51 4 -3 1 -6 -5 -6 -7 0
-12 -9 -12 -20 0 -11 -4 -20 -8 -20 -5 0 -9 -6 -9 -12 0 -7 -12 -39 -27 -71
-14 -32 -24 -63 -21 -68 4 -5 3 -9 -2 -9 -9 0 -39 -61 -35 -72 1 -5 -2 -8 -8
-8 -6 0 -9 -3 -8 -8 3 -6 -32 -98 -67 -177 -15 -34 -25 -62 -24 -71 0 -4 -3
-10 -8 -13 -5 -3 -17 -28 -28 -56 -10 -27 -30 -75 -44 -105 -14 -30 -26 -59
-27 -65 -1 -5 -5 -17 -9 -26 -4 -10 0 -19 10 -23 12 -4 20 4 32 32 9 20 16 43
16 50 0 6 4 12 9 12 4 0 8 4 8 9 0 5 8 26 17 47 9 22 17 41 18 44 1 3 6 16 12
30 6 14 19 45 29 70 10 25 24 56 30 69 7 14 11 28 8 33 -3 4 -1 8 3 8 5 0 15
17 22 38 7 20 19 51 27 67 7 17 31 75 54 130 23 55 47 114 54 130 7 17 24 56
37 87 13 32 29 58 34 58 6 0 41 -16 78 -35 37 -19 67 -32 67 -27 0 4 4 2 8 -3
4 -6 32 -21 62 -34 30 -13 78 -33 107 -45 28 -13 59 -29 69 -37 10 -8 15 -9
11 -3 -3 6 24 -4 61 -22 37 -19 72 -34 79 -34 28 0 20 -21 -24 -63 -115 -109
-158 -147 -165 -147 -5 0 -8 -7 -8 -15 0 -8 -4 -15 -8 -15 -8 0 -384 -370
-481 -473 l-34 -36 26 -10 c31 -12 200 -58 240 -65 15 -2 37 -8 48 -11 12 -4
31 -8 42 -10 12 -2 33 -6 47 -9 33 -8 199 -38 230 -41 14 -2 50 -6 80 -10 30
-3 71 -8 90 -10 179 -24 593 -23 825 0 63 6 242 32 285 40 74 15 97 19 115 21
11 1 20 3 20 4 0 1 11 4 25 6 31 5 222 55 312 81 37 11 70 18 73 15 3 -3 5 -1
5 5 0 6 15 13 33 17 32 6 154 49 192 67 14 7 36 6 65 -1 25 -6 62 -13 83 -15
21 -3 47 -10 58 -15 10 -6 19 -9 19 -6 0 2 18 0 40 -5 48 -11 110 -22 128 -22
6 0 12 -3 12 -7 0 -3 10 -6 23 -7 29 0 132 -11 132 -13 0 -1 16 -4 35 -5 19
-2 55 -6 80 -10 143 -18 339 -36 463 -40 37 -1 70 -5 73 -7 2 -3 23 -2 44 2
22 4 42 5 44 1 6 -8 363 -7 372 2 4 3 15 2 25 -4 11 -5 19 -6 19 -2 0 4 24 9
53 9 52 1 192 12 192 14 0 1 20 3 45 5 25 2 61 6 80 10 19 4 49 8 65 9 17 2
44 6 60 10 17 3 44 8 62 10 18 3 37 7 43 11 6 4 25 8 43 10 35 4 55 9 105 24
17 5 32 7 32 4 0 -3 7 0 15 7 8 7 15 9 15 6 0 -4 10 -2 21 5 12 6 36 13 53 16
17 3 36 9 42 14 7 6 20 11 30 13 11 3 33 10 49 17 17 6 35 13 40 14 16 4 128
58 154 74 13 8 30 16 38 17 8 2 22 9 31 17 10 8 25 17 35 20 9 4 17 11 17 17
0 6 4 9 8 6 5 -3 18 4 30 14 12 11 24 20 27 20 4 0 12 6 19 13 7 6 28 23 47
37 37 27 169 156 169 165 0 3 8 13 18 23 28 31 57 75 54 84 -1 4 2 8 7 8 27 0
138 278 144 359 1 17 5 31 8 31 4 0 5 14 3 30 -2 17 0 30 4 30 4 0 7 63 8 140
0 77 -2 140 -6 140 -3 0 -5 12 -4 27 0 15 -3 47 -8 72 -5 25 -10 60 -13 76 -2
17 -5 31 -6 33 -1 1 -2 5 -3 10 -15 66 -77 264 -88 278 -5 7 -10 21 -13 32 -2
11 -13 39 -25 63 -12 24 -23 53 -25 63 -3 11 -10 23 -16 26 -6 4 -11 10 -11
13 0 19 -12 47 -20 47 -5 0 -7 4 -4 9 3 5 -1 14 -9 21 -8 7 -12 16 -9 21 3 5
0 9 -6 9 -6 0 -8 5 -5 10 3 6 2 10 -4 10 -5 0 -13 10 -17 23 -9 28 -95 171
-106 175 -4 2 -6 7 -3 12 3 5 -1 14 -8 22 -7 7 -22 28 -32 46 -11 17 -23 32
-27 32 -4 0 -8 6 -8 14 0 7 -7 19 -15 26 -9 7 -13 15 -11 17 3 3 1 10 -5 17
-5 6 -23 27 -39 46 -16 19 -30 38 -30 42 0 4 -11 19 -25 33 -14 14 -23 25 -19
25 4 0 -3 9 -16 20 -13 11 -19 20 -15 20 5 0 0 8 -11 18 -10 10 -28 31 -39 46
-11 16 -26 34 -33 42 -7 8 -11 14 -9 14 3 0 -9 15 -26 33 -18 18 -48 53 -67
77 -19 24 -42 51 -51 59 -9 9 -33 36 -53 59 -20 24 -36 40 -36 34 0 -5 7 -15
15 -22 8 -7 12 -16 9 -21 -3 -5 -1 -9 3 -9 5 0 19 -18 33 -40 14 -22 28 -40
32 -40 5 0 8 -7 8 -15 0 -8 5 -15 10 -15 6 0 10 -5 10 -12 0 -6 7 -19 16 -29
19 -21 52 -77 60 -101 4 -10 10 -18 14 -18 4 0 13 -15 21 -32 7 -18 15 -35 18
-38 14 -12 108 -197 109 -214 0 -5 5 -12 11 -15 6 -4 12 -16 14 -26 2 -11 11
-38 21 -60 28 -62 34 -77 46 -120 6 -22 14 -47 17 -55 9 -22 17 -52 28 -101 2
-11 7 -30 11 -41 3 -11 8 -32 10 -46 1 -15 6 -52 10 -82 8 -61 9 -240 0 -310
-2 -25 -12 -72 -21 -105 -9 -33 -17 -66 -17 -72 -1 -7 -4 -13 -8 -13 -4 0 -7
-6 -7 -13 0 -21 -84 -187 -94 -187 -5 0 -9 -5 -9 -11 0 -6 -6 -16 -12 -24 -7
-7 -22 -26 -33 -41 -25 -36 -158 -165 -163 -159 -3 2 -13 -7 -24 -20 -11 -14
-25 -25 -31 -25 -7 0 -24 -10 -37 -22 -14 -13 -32 -24 -40 -26 -8 -2 -16 -8
-18 -13 -2 -5 -10 -9 -17 -9 -8 0 -21 -8 -31 -17 -10 -10 -18 -16 -18 -14 -2
8 -46 -11 -46 -20 0 -5 -3 -8 -7 -7 -5 1 -46 -13 -93 -31 -47 -19 -91 -34 -97
-34 -7 0 -13 -3 -13 -7 0 -4 -6 -7 -12 -8 -16 -1 -43 -7 -128 -31 -61 -18
-103 -27 -160 -35 -14 -2 -25 -5 -25 -6 0 -1 -13 -3 -30 -5 -16 -1 -30 -3 -30
-5 0 -2 -10 -3 -105 -14 -115 -14 -177 -19 -227 -20 -29 0 -53 -5 -53 -9 0 -5
-6 -4 -14 2 -10 8 -16 9 -21 1 -4 -7 -12 -7 -24 0 -10 5 -21 6 -25 3 -11 -11
-156 -10 -156 1 0 7 -3 8 -8 1 -8 -12 -72 -13 -89 -2 -6 4 -14 3 -17 -1 -6
-10 -48 -8 -65 3 -6 3 -11 2 -11 -4 0 -6 -7 -8 -16 -4 -13 5 -11 10 13 30 15
13 45 39 65 58 20 19 39 35 42 35 3 0 28 23 56 50 28 28 52 50 54 50 4 0 162
160 218 221 55 60 123 140 173 203 17 21 38 47 48 59 9 11 17 23 17 26 0 3 10
18 23 31 12 14 46 61 76 105 30 44 58 82 61 85 4 3 13 19 22 35 15 30 78 136
98 165 35 50 196 377 206 416 3 13 10 24 15 24 5 0 8 3 7 8 0 4 2 16 7 27 47
116 127 343 141 400 3 11 7 27 9 35 2 8 4 15 5 15 2 0 5 14 14 53 3 13 8 32
11 42 3 10 7 27 9 37 2 11 11 48 20 84 9 35 18 78 20 94 3 17 7 44 10 60 17
90 22 121 31 195 3 25 7 55 9 67 27 135 27 807 1 928 -3 11 -7 45 -10 75 -6
59 -11 93 -18 125 -3 11 -8 40 -12 65 -3 25 -9 58 -11 75 -3 16 -9 34 -14 41
-6 6 -7 13 -4 16 2 3 -7 52 -22 109 -14 57 -27 111 -28 119 -1 9 -5 20 -8 26
-4 6 -9 21 -12 35 -2 13 -9 36 -14 50 -6 15 -8 30 -5 33 4 3 1 6 -5 6 -6 0
-10 8 -10 18 0 9 -19 67 -42 127 -23 61 -42 116 -43 123 0 6 -4 12 -9 12 -5 0
-6 5 -3 10 3 6 2 10 -3 10 -5 0 -9 6 -9 13 0 22 -167 371 -191 400 -8 9 -12
17 -9 17 3 0 -17 37 -45 83 -28 45 -60 98 -72 117 -11 19 -24 37 -28 38 -4 2
-8 9 -8 16 0 6 -13 27 -30 46 -16 19 -29 41 -30 48 0 6 -4 12 -10 12 -5 0 -10
7 -10 15 0 8 -4 15 -8 15 -4 0 -16 13 -25 30 -10 16 -23 35 -30 42 -22 24 -77
97 -77 102 0 3 -10 16 -22 29 -13 12 -41 45 -63 71 -22 27 -65 75 -95 108 -30
33 -64 72 -77 86 l-22 26 -17 -39 c-18 -44 -48 -112 -70 -162 -8 -17 -14 -36
-14 -41 0 -6 -7 -23 -15 -39 -17 -32 -46 -99 -96 -222 -35 -87 -86 -153 -126
-165 -13 -4 -23 -11 -23 -14 0 -4 -28 -9 -62 -10 -62 -3 -100 8 -223 63 -16 8
-59 26 -95 41 -36 14 -76 31 -90 37 -14 6 -27 11 -30 12 -3 1 -16 6 -30 12
-14 6 -65 28 -115 48 -49 20 -103 43 -120 50 -16 8 -64 28 -105 45 -41 17 -86
36 -100 42 -14 6 -27 12 -30 13 -22 7 -49 19 -72 31 -15 8 -31 15 -35 16 -5 0
-19 5 -32 10 -28 10 -36 2 -51 -54 -6 -20 -15 -40 -20 -43 -20 -12 -9 -34 23
-48 17 -8 48 -22 67 -30 19 -8 76 -32 125 -52 50 -21 95 -41 100 -45 6 -5 12
-8 15 -9 17 0 261 -101 275 -113 5 -4 19 -8 32 -8 13 0 23 -4 23 -10 0 -5 7
-10 15 -10 8 0 23 -4 33 -9 40 -22 131 -59 135 -55 2 3 9 -1 15 -8 7 -10 -2
-44 -34 -127 -24 -63 -60 -162 -80 -220 -20 -58 -38 -113 -42 -121 -3 -8 -6
-17 -6 -20 -3 -10 -78 -245 -83 -260 -7 -17 -12 -34 -16 -52 -1 -7 -6 -19 -11
-26 -4 -7 -5 -16 -2 -19 3 -3 1 -14 -5 -25 -6 -11 -12 -28 -15 -39 -5 -24 -7
-32 -45 -169 -18 -63 -33 -122 -34 -130 -1 -8 -5 -22 -8 -30 -3 -8 -22 -82
-42 -165 -20 -82 -38 -154 -39 -160 -6 -22 -20 -91 -21 -105 -1 -8 -5 -22 -8
-30 -4 -8 -8 -28 -11 -45 -2 -16 -5 -30 -6 -30 -1 0 -3 -11 -5 -25 -2 -14 -10
-54 -18 -89 -9 -36 -14 -68 -11 -72 2 -4 0 -10 -5 -14 -5 -3 -9 -13 -9 -23 0
-9 -11 -75 -26 -145 -14 -71 -28 -143 -31 -160 -2 -18 -6 -41 -8 -52 -3 -11
-8 -40 -12 -65 -4 -25 -9 -52 -10 -61 -2 -9 -6 -32 -9 -50 -3 -19 -8 -44 -10
-55 -6 -28 -16 -90 -21 -134 -3 -19 -7 -46 -10 -60 -3 -14 -8 -45 -11 -70 -3
-25 -8 -56 -10 -70 -3 -14 -7 -41 -9 -60 -2 -19 -6 -55 -9 -79 -3 -24 -8 -51
-10 -60 -3 -9 -8 -45 -11 -81 -4 -36 -9 -74 -11 -84 -2 -11 -6 -44 -10 -75 -3
-31 -7 -67 -9 -81 -1 -14 -6 -54 -9 -90 -4 -36 -9 -76 -11 -90 -2 -14 -7 -52
-10 -85 -12 -121 -16 -139 -33 -151 -9 -7 -20 -10 -24 -8 -5 3 -8 1 -8 -4 0
-5 -8 -12 -17 -15 -19 -6 -74 -38 -83 -47 -3 -3 -27 -19 -55 -35 -27 -15 -52
-31 -55 -34 -3 -3 -21 -15 -40 -25 -19 -11 -39 -24 -45 -28 -5 -5 -62 -43
-125 -85 -101 -67 -215 -147 -245 -170 -6 -4 -73 -55 -150 -112 -77 -58 -141
-108 -143 -113 -2 -4 -10 -8 -18 -8 -8 0 -14 -4 -14 -8 0 -5 -19 -23 -42 -40
-24 -17 -55 -41 -69 -54 -77 -67 -104 -80 -123 -60 -4 4 -12 8 -17 8 -5 1 -11
3 -14 4 -3 1 -8 3 -12 5 -5 1 -21 7 -36 13 -16 7 -30 12 -31 12 -2 0 -21 8
-42 17 -22 9 -41 17 -44 18 -18 5 -74 28 -124 50 -21 9 -44 18 -50 19 -6 1
-22 8 -36 16 -14 8 -29 15 -35 15 -5 1 -21 7 -35 15 -14 8 -30 15 -36 16 -6 1
-42 16 -80 34 -38 18 -75 33 -82 34 -7 1 -18 8 -24 14 -7 7 -18 12 -26 12 -7
0 -38 14 -68 30 -29 17 -54 27 -54 23 0 -4 -4 -2 -9 6 -6 9 0 33 15 67 13 30
20 54 16 54 -4 0 -2 4 4 8 5 4 21 34 34 67 13 33 33 83 46 110 12 28 38 88 57
135 20 47 43 103 53 125 10 22 19 46 20 53 1 8 9 28 17 45 31 66 56 125 91
212 20 50 41 99 45 110 31 72 44 102 86 202 l46 111 60 -3 c45 -2 63 1 76 13
9 10 18 16 20 15 28 -22 129 114 109 146 -4 5 -2 12 2 15 16 10 -11 126 -28
126 -6 0 -10 6 -10 13 0 22 -64 64 -118 76 -52 13 -74 11 -129 -10 -15 -6 -29
-10 -31 -10 -8 3 -64 -72 -77 -103 -30 -71 -7 -182 44 -218 11 -8 18 -18 14
-21 -3 -4 1 -7 9 -7 23 0 29 -25 12 -49 -8 -11 -12 -21 -8 -21 3 0 -1 -11 -10
-25 -9 -14 -14 -25 -11 -25 4 0 -1 -12 -9 -27 -8 -16 -34 -73 -56 -128 -47
-115 -51 -124 -79 -187 -12 -26 -21 -50 -21 -52 0 -2 -9 -24 -20 -50 -12 -25
-21 -49 -21 -53 -1 -5 -7 -19 -14 -33 -11 -21 -23 -49 -30 -70 -1 -3 -7 -18
-15 -35 -7 -16 -18 -43 -25 -60 -86 -203 -109 -261 -107 -268 1 -4 -3 -7 -8
-7 -6 0 -10 -9 -10 -20 0 -11 -5 -20 -11 -20 -5 0 -8 -4 -5 -8 3 -5 -1 -19 -8
-33 -7 -13 -13 -27 -14 -32 -1 -4 -9 -21 -17 -37 -8 -16 -15 -32 -15 -35 -1
-3 -3 -12 -6 -20 -5 -13 -12 -12 -43 7 -20 13 -37 22 -39 20 -2 -2 -64 28
-169 84 -34 18 -64 30 -67 26 -3 -3 -6 -1 -6 5 0 9 -35 30 -54 31 -5 0 -12 4
-15 9 -3 5 -17 14 -31 20 -14 7 -56 31 -95 53 -38 22 -81 45 -95 52 -14 7 -27
15 -30 18 -7 7 -60 37 -102 57 -21 10 -38 21 -38 25 0 5 -7 8 -15 8 -8 0 -15
3 -15 8 0 4 -18 16 -40 26 -57 28 -69 45 -75 112 -4 55 -9 97 -21 184 -3 19
-7 53 -9 75 -3 22 -8 58 -11 79 -4 21 -8 53 -10 70 -2 17 -5 40 -8 52 -2 12
-7 45 -11 75 -4 30 -8 57 -10 60 -2 3 -6 25 -9 50 -3 24 -8 55 -11 69 -3 14
-8 39 -11 55 -3 17 -16 80 -29 142 -14 61 -26 122 -29 135 -3 13 -18 75 -34
139 -27 111 -28 117 -10 128 10 6 18 16 18 21 0 6 8 18 18 28 18 20 88 101
100 117 4 6 27 35 52 65 25 30 49 60 53 65 4 6 49 62 99 125 50 63 98 126 106
140 9 14 24 32 34 41 10 9 18 20 18 23 0 4 6 14 13 21 17 20 28 34 62 80 17
22 32 42 35 45 3 3 21 28 40 55 19 28 40 56 48 64 7 8 21 26 30 40 9 14 32 45
50 69 19 23 32 42 28 42 -3 0 2 9 12 19 26 29 37 44 58 76 10 17 21 32 24 35
3 3 23 32 45 65 22 33 45 65 50 71 6 6 16 20 22 30 7 11 31 45 53 77 22 32 40
61 40 66 0 4 9 16 20 26 11 10 20 22 20 28 0 5 14 26 30 47 17 21 30 40 30 43
0 4 20 35 45 70 25 36 45 69 45 75 0 6 3 12 8 14 9 4 52 65 52 73 0 4 12 25
28 48 39 61 42 65 154 252 56 94 104 172 107 175 3 3 7 12 9 20 2 8 8 17 13
18 5 2 9 8 9 14 0 5 15 36 34 68 19 32 32 61 29 64 -4 3 -1 6 5 6 7 0 12 7 12
15 0 7 8 19 18 24 9 6 14 11 10 11 -5 0 10 33 31 73 87 159 278 553 285 587 1
3 6 13 11 22 9 15 13 15 50 -2 22 -11 44 -19 48 -20 4 0 27 -9 50 -19 42 -19
100 -43 257 -108 97 -39 122 -50 203 -87 32 -14 63 -26 70 -26 7 0 18 -5 25
-12 7 -7 12 -8 12 -2 0 5 3 5 8 -1 10 -14 156 -72 170 -67 7 2 12 12 12 23 0
10 5 19 10 19 6 0 9 3 8 8 -3 14 15 67 26 74 6 4 0 11 -14 16 -32 12 -147 60
-185 77 -16 8 -86 37 -155 65 -69 28 -134 55 -145 59 -11 5 -38 17 -60 26 -22
10 -56 24 -75 32 -19 8 -47 21 -62 29 -16 9 -28 13 -28 9 0 -3 -15 2 -32 12
-18 9 -35 18 -38 18 -3 0 -27 11 -54 23 -27 12 -54 22 -62 22 -7 0 -16 5 -19
10 -3 6 -15 10 -25 10 -10 0 -20 3 -22 8 -1 4 -20 16 -40 26 -21 11 -38 25
-38 33 0 7 -5 13 -10 13 -6 0 -19 20 -30 45 -27 64 -21 141 19 228 17 38 31
75 31 83 0 8 4 14 8 14 5 0 9 6 9 13 0 6 9 32 20 57 12 25 33 74 48 110 14 36
35 84 46 107 10 24 19 45 19 48 0 3 9 24 19 48 33 74 52 129 42 123 -5 -4 -13
-2 -16 4 -5 8 -11 7 -21 -1 -8 -6 -14 -8 -14 -3 0 5 -44 9 -98 9 -53 0 -103 4
-109 9 -8 5 -13 5 -13 0z m-3148 -1489 c-9 -14 -20 -25 -24 -25 -5 0 -8 -5 -8
-10 0 -6 -10 -21 -22 -34 -13 -13 -30 -33 -38 -46 -8 -12 -33 -45 -55 -74 -22
-29 -60 -83 -85 -122 -25 -38 -48 -70 -52 -72 -5 -2 -8 -8 -8 -14 0 -5 -13
-29 -30 -53 -16 -24 -30 -46 -30 -48 0 -3 -18 -35 -40 -71 -71 -117 -248 -493
-262 -556 -2 -8 -6 -17 -9 -20 -3 -3 -21 -50 -39 -105 -17 -55 -35 -107 -38
-115 -7 -20 -10 -31 -16 -58 -3 -12 -7 -26 -10 -30 -3 -5 -8 -22 -11 -38 -5
-25 -12 -53 -14 -61 -1 -2 -2 -6 -2 -10 -1 -5 -5 -18 -10 -31 -5 -13 -11 -37
-14 -55 -4 -18 -11 -52 -16 -77 -6 -25 -12 -52 -14 -60 -7 -38 -19 -106 -20
-115 -1 -5 -5 -29 -9 -52 -4 -23 -9 -59 -12 -80 -2 -21 -6 -54 -8 -73 -3 -19
-7 -62 -10 -94 -4 -33 -8 -61 -10 -63 -4 -4 -146 225 -146 237 0 6 -4 10 -10
10 -5 0 -10 9 -10 20 0 11 -6 23 -14 26 -8 3 -18 19 -21 35 -4 16 -11 29 -16
29 -5 0 -8 3 -7 8 2 6 -46 115 -74 166 -5 10 -11 26 -13 35 -2 9 -20 58 -38
109 -19 50 -33 92 -31 92 2 0 -3 21 -11 48 -8 26 -15 59 -15 74 0 15 -4 29 -8
32 -5 3 -8 21 -7 40 1 20 -1 36 -5 36 -3 0 -6 18 -5 40 1 23 -2 43 -6 46 -4 2
-4 17 1 33 4 15 4 34 -1 42 -5 8 -3 16 3 20 9 6 9 11 0 22 -7 7 -9 17 -5 21 4
4 9 19 10 34 4 60 8 82 15 82 4 0 5 7 2 15 -3 8 1 36 10 63 9 27 18 57 20 68
5 27 59 138 68 142 5 2 6 8 2 13 -3 5 0 9 5 9 6 0 10 4 8 8 -1 5 9 24 23 42
14 18 25 36 25 39 0 4 10 17 23 31 12 13 22 28 22 32 0 5 5 6 10 3 6 -3 10 -2
10 3 0 14 47 62 61 62 7 0 10 3 7 6 -8 7 23 38 45 47 9 3 17 11 17 17 0 6 5 8
10 5 6 -3 13 1 16 9 3 9 10 13 15 10 5 -3 9 -1 9 4 0 9 92 72 105 72 3 0 13 7
21 15 9 8 24 15 35 15 10 0 19 4 19 9 0 9 56 32 74 30 5 0 12 4 16 11 4 6 13
12 21 14 8 1 23 7 34 13 22 11 80 27 80 21 1 -2 13 5 28 15 15 9 27 15 27 12
0 -2 11 0 25 5 27 10 71 21 93 22 6 1 12 5 12 10 0 5 4 7 9 3 6 -3 29 -1 53 5
24 6 55 13 71 15 15 3 39 7 55 10 15 3 47 8 72 11 25 3 46 7 47 8 1 1 11 2 22
3 20 2 20 1 3 -22z"/>
<path d="M2050 2525 c0 -4 290 -187 363 -229 26 -15 66 -45 90 -66 42 -40 157
-108 157 -94 0 4 14 -5 30 -21 82 -79 6 -42 -252 121 -120 76 -254 147 -268
142 -5 -2 19 -23 54 -48 35 -24 72 -57 82 -72 11 -15 23 -28 27 -28 4 0 35
-18 68 -40 33 -22 62 -40 64 -40 2 0 54 -32 116 -71 92 -58 116 -69 131 -60
14 9 23 4 50 -28 22 -26 72 -59 153 -101 146 -76 156 -83 169 -115 8 -18 34
-36 92 -63 44 -21 112 -57 151 -80 38 -23 90 -50 114 -59 58 -23 171 -91 187
-114 7 -10 19 -16 27 -13 8 3 24 -3 35 -14 12 -11 38 -23 58 -27 46 -9 72 -22
72 -38 0 -15 93 -58 175 -82 33 -9 87 -26 120 -37 33 -10 86 -27 118 -37 59
-17 69 -31 18 -25 -15 2 -79 17 -141 34 -105 29 -134 39 -265 94 -92 38 -448
221 -575 295 -155 90 -318 192 -915 570 -65 41 -246 138 -291 155 -14 5 -15 4
-4 -9 13 -16 1 -21 -15 -6 -6 4 -35 22 -65 38 -30 17 -76 42 -102 57 -119 65
-141 77 -144 74 -1 -2 41 -30 94 -63 53 -33 122 -82 153 -110 30 -27 64 -56
75 -63 65 -43 163 -116 160 -119 -2 -2 -110 49 -239 114 -129 65 -233 115
-231 111 3 -4 49 -35 102 -68 126 -78 150 -99 132 -110 -11 -7 -9 -12 10 -28
14 -12 19 -21 12 -25 -6 -4 -17 -2 -24 5 -28 26 -197 104 -188 87 5 -9 7 -19
4 -22 -3 -3 -91 44 -195 104 -182 104 -230 125 -131 57 26 -18 52 -37 59 -43
6 -5 55 -41 107 -80 101 -74 112 -95 24 -47 -29 16 -93 51 -143 77 -49 26 -96
52 -102 58 -9 6 -13 6 -13 -1 0 -5 17 -19 39 -30 42 -22 176 -107 228 -144 18
-13 40 -39 50 -58 10 -19 33 -52 52 -72 23 -25 30 -38 20 -38 -20 0 -156 59
-269 117 -52 27 -122 55 -155 62 -33 7 -109 39 -170 72 -66 35 -98 49 -80 33
17 -14 44 -32 60 -41 17 -9 32 -19 35 -22 3 -3 34 -26 70 -50 122 -83 201
-143 210 -161 9 -16 7 -18 -17 -14 -24 5 -120 50 -133 64 -7 7 -80 40 -80 36
0 -1 9 -14 21 -27 18 -21 19 -24 4 -27 -9 -2 -34 8 -55 22 -55 36 -72 33 -22
-4 23 -16 44 -30 47 -30 4 0 21 -13 59 -45 7 -5 19 -14 28 -20 55 -33 227
-183 227 -197 1 -30 96 -138 166 -188 72 -52 72 -73 0 -41 -55 24 -58 20 -7
-10 20 -13 39 -26 42 -29 7 -8 258 -170 328 -211 15 -9 98 -60 184 -112 87
-53 235 -136 330 -185 95 -49 182 -93 193 -99 90 -49 148 -73 178 -77 31 -4
95 -32 350 -156 31 -15 57 -24 57 -20 0 3 -17 14 -37 24 -71 33 -123 67 -118
76 7 11 203 -55 226 -76 8 -8 21 -14 27 -14 7 0 20 -4 30 -10 23 -13 344 -139
402 -157 25 -8 113 -34 195 -58 83 -24 188 -55 235 -69 105 -31 431 -135 440
-141 6 -4 246 -45 340 -59 136 -20 390 -26 515 -13 93 10 137 24 277 91 108
51 122 61 165 117 27 34 49 73 50 88 1 14 9 44 17 66 8 22 15 45 16 52 0 6 16
46 36 88 42 91 54 148 48 227 -8 114 -57 198 -133 231 -17 7 -163 11 -426 13
-529 2 -557 4 -845 53 -96 17 -193 33 -215 36 -172 25 -352 68 -478 114 -168
62 -580 248 -711 322 -94 53 -112 69 -79 69 28 0 -231 179 -492 340 -47 29
-191 122 -320 206 -71 47 -137 88 -145 91 -8 4 -33 18 -55 32 -72 47 -80 51
-105 63 -14 7 -49 27 -77 45 -51 31 -123 66 -123 58z m-417 -699 c14 -19 24
-25 42 -20 12 3 26 1 29 -5 4 -6 16 -11 27 -11 11 0 41 -22 67 -49 26 -26 64
-53 84 -60 20 -7 44 -23 52 -37 9 -13 23 -24 31 -24 8 0 19 -8 24 -17 6 -10
11 -14 11 -9 0 4 12 0 28 -10 15 -10 52 -30 82 -45 30 -15 70 -43 88 -63 18
-20 37 -34 42 -31 4 3 11 -9 15 -26 7 -29 8 -30 26 -13 18 16 19 16 19 -14 0
-31 27 -51 51 -37 11 8 49 -27 49 -45 0 -12 -24 -40 -34 -40 -3 0 -6 9 -6 20
0 15 -7 20 -24 20 -14 0 -28 5 -31 10 -4 6 -24 18 -46 27 -22 8 -46 25 -54 37
-9 11 -27 21 -43 22 -15 1 -49 17 -75 35 -27 19 -69 45 -95 59 -26 14 -63 34
-82 45 -36 21 -269 188 -283 204 -32 34 -47 48 -66 64 -17 14 -20 21 -11 32
17 20 61 10 83 -19z m840 -360 c3 3 3 12 0 20 -12 33 7 10 31 -36 14 -27 22
-50 18 -50 -21 0 -77 48 -96 80 l-19 35 29 -28 c17 -15 33 -25 37 -21z m1082
-106 c134 -61 320 -140 330 -140 4 0 21 -6 38 -14 56 -24 159 -64 247 -96 96
-34 65 -32 -75 5 -177 46 -375 130 -606 257 -124 68 -164 97 -74 54 39 -19
102 -48 140 -66z m-197 -39 c71 -36 548 -234 645 -268 55 -18 124 -44 155 -57
51 -21 144 -42 165 -38 4 1 7 -3 7 -8 0 -34 -431 90 -627 180 -24 11 -45 20
-48 20 -24 0 -365 173 -365 185 0 2 3 11 6 20 6 16 8 16 16 1 5 -9 26 -25 46
-35z m-855 -63 c-6 -11 -33 -10 -33 0 0 5 -11 14 -25 20 -26 12 -36 36 -11 26
8 -3 23 -1 33 5 15 8 20 5 30 -17 6 -15 9 -30 6 -34z m2242 -188 c7 -12 -19
-12 -55 0 -22 7 -21 8 12 9 20 1 40 -3 43 -9z m-1822 -40 c-6 -23 -28 -27 -37
-5 -3 8 -1 15 4 15 5 0 7 7 3 16 -5 14 -3 15 15 5 14 -7 19 -17 15 -31z m581
-276 c24 -9 19 -20 -9 -20 -25 0 -31 7 -18 19 8 8 8 8 27 1z m2376 -109 c-13
-16 -40 -20 -40 -7 0 14 12 22 33 22 16 0 17 -3 7 -15z m-210 -240 c47 -8 115
-33 95 -34 -27 -1 -195 45 -208 58 -5 5 12 3 39 -5 27 -8 60 -17 74 -19z
m-187 -4 c37 -11 67 -17 67 -15 0 3 8 0 18 -5 9 -5 31 -12 47 -15 17 -3 46 -9
65 -14 19 -5 49 -5 65 0 61 17 93 13 120 -16 14 -15 25 -30 25 -35 0 -4 -21
-7 -46 -7 -32 1 -50 -4 -59 -17 -6 -9 -24 -17 -38 -17 -51 0 -261 92 -317 139
-31 25 -30 25 53 2z m-988 -31 c13 11 19 10 35 -5 34 -31 13 -37 -70 -20 -8 2
-18 4 -22 4 -3 1 -4 10 -1 21 5 20 7 20 24 4 15 -14 21 -14 34 -4z m234 -75
c4 -5 -2 -6 -51 -8 -12 -1 -23 4 -26 12 -3 9 5 11 34 7 21 -4 40 -9 43 -11z
m725 -20 c-9 -23 -21 -18 -26 10 -4 21 -3 23 13 14 11 -5 16 -16 13 -24z
m-601 -6 c33 -9 36 -12 27 -29 -13 -24 -33 -26 -52 -5 -37 41 -39 45 -26 45 7
0 30 -5 51 -11z m325 -48 c29 -4 90 -6 135 -4 193 10 248 4 291 -30 l28 -23
-123 -3 c-241 -7 -262 -6 -414 20 -33 5 -70 12 -82 14 -25 6 -31 30 -10 38 15
6 106 0 175 -12z"/>
<path d="M1540 1636 c0 -2 8 -10 18 -17 15 -13 16 -12 3 4 -13 16 -21 21 -21
13z"/>
<path d="M1580 1605 c0 -2 10 -10 23 -16 20 -11 21 -11 8 4 -13 16 -31 23 -31
12z"/>
</g>
</svg>
